<svg
    class="logo"
    viewBox="0 0 100 100"
    version="1.1"
    xmlns="http://www.w3.org/2000/svg"
    xmlns:xlink="http://www.w3.org/1999/xlink">

  <g>
      <path d="M44.3220588,52.8069057 L44.3220588,45.9983325 C44.3220588,42.8550119 46.8867647,40.2966657 50.0397059,40.2966657 C53.1941176,40.2966657 55.7588235,42.8550119 55.7588235,45.9983325 L55.7588235,52.8069057 L44.3220588,52.8069057 L44.3220588,52.8069057 Z M50.0397059,32 C42.7029412,32 36.6705882,37.6444889 36.0602941,44.8049263 C36.0323529,45.0028499 36,45.1993075 36,45.4045616 L36,64.4873325 C36,66.7773823 37.8632353,68.6349322 40.1617647,68.6349322 C42.4588235,68.6349322 44.3220588,66.7773823 44.3220588,64.4873325 L44.3220588,61.1035713 L55.7588235,61.1035713 L55.7588235,64.4873325 C55.7588235,66.7773823 57.6205882,68.6349322 59.9191176,68.6349322 C62.2176471,68.6349322 64.0808824,66.7773823 64.0808824,64.4873325 L64.0808824,45.4045616 C64.0808824,45.1993075 64.0485294,45.0028499 64.0191176,44.8049263 C63.4088235,37.6444889 57.3779412,32 50.0397059,32 L50.0397059,32 L50.0397059,32 Z"></path>

      <path d="M50,91.5610367 C27.0825256,91.5610367 8.43896329,72.9174744 8.43896329,50 C8.43896329,27.0825256 27.0825256,8.43896329 50,8.43896329 C72.9174744,8.43896329 91.5610367,27.0825256 91.5610367,50 C91.5610367,72.9174744 72.9174744,91.5610367 50,91.5610367 M50,0 C22.4298369,0 0,22.4298369 0,50 C0,77.5701631 22.4298369,100 50,100 C77.5701631,100 100,77.5701631 100,50 C100,22.4298369 77.5701631,0 50,0" ></path>

  </g>
</svg>
