<svg
  xmlns="http://www.w3.org/2000/svg"
  xmlns:xlink="http://www.w3.org/1999/xlink"
  version="1.1" x="0px" y="0px"
  viewBox="0 0 100 100"
  width="32">
  <path
    fill-rule="evenodd"
    clip-rule="evenodd"
    fill="rgba(0,0,0,0.6)"
    d="M74.842,54.215c-2.164,4.094-5.487,10.383-7.806,14.768  C67.047,68.954,64.977,74,60.041,74c-7.321,0-13.106,0-19.869,0c-5,0-7.098-5.046-7.087-5.018  c-2.349-4.385-5.717-10.674-7.909-14.768c-0.032-0.018-3.004-4.215-0.009-8.249c2.374-4.469,6.133-11.545,8.479-15.963  C33.637,30.041,35.172,26,40.141,26c0.854,0,14.829,0,19.932,0c4.904,0,6.419,4.041,6.41,4.003  c2.315,4.418,6.024,11.494,8.368,15.963C77.807,50,74.874,54.197,74.842,54.215z M50.172,36c-2.209,0-4,1.791-4,4s1.791,4,4,4  c0,0,3.947-0.085,3.947-4S50.172,36,50.172,36z"/>
</svg>
